<svg xmlns="http://www.w3.org/2000/svg" xmlns:xlink="http://www.w3.org/1999/xlink" width="135" height="40" viewBox="0 0 135 40">
  <defs>
    <linearGradient id="linear-gradient" x1="0.915" y1="6.614" x2="-0.383" y2="5.945" gradientUnits="objectBoundingBox">
      <stop offset="0" stop-color="#00a0ff"/>
      <stop offset="0.007" stop-color="#00a1ff"/>
      <stop offset="0.26" stop-color="#00beff"/>
      <stop offset="0.512" stop-color="#00d2ff"/>
      <stop offset="0.76" stop-color="#00dfff"/>
      <stop offset="1" stop-color="#00e3ff"/>
    </linearGradient>
    <linearGradient id="linear-gradient-2" x1="1.076" y1="17.098" x2="-1.305" y2="17.098" gradientUnits="objectBoundingBox">
      <stop offset="0" stop-color="#ffe000"/>
      <stop offset="0.409" stop-color="#ffbd00"/>
      <stop offset="0.775" stop-color="orange"/>
      <stop offset="1" stop-color="#ff9c00"/>
    </linearGradient>
    <linearGradient id="linear-gradient-3" x1="0.862" y1="10.863" x2="-0.501" y2="9.093" gradientUnits="objectBoundingBox">
      <stop offset="0" stop-color="#ff3a44"/>
      <stop offset="1" stop-color="#c31162"/>
    </linearGradient>
    <linearGradient id="linear-gradient-4" x1="-0.188" y1="13.583" x2="0.421" y2="12.793" gradientUnits="objectBoundingBox">
      <stop offset="0" stop-color="#32a071"/>
      <stop offset="0.068" stop-color="#2da771"/>
      <stop offset="0.476" stop-color="#15cf74"/>
      <stop offset="0.801" stop-color="#06e775"/>
      <stop offset="1" stop-color="#00f076"/>
    </linearGradient>
  </defs>
  <g id="play-store" transform="translate(-10 -10)">
    <path id="Path_37886" data-name="Path 37886" d="M5,0H130a5,5,0,0,1,5,5V35a5,5,0,0,1-5,5H5a5,5,0,0,1-5-5V5A5,5,0,0,1,5,0Z" transform="translate(10 10)" fill="#fff"/>
    <g id="Group_49328" data-name="Group 49328">
      <g id="Group_49327" data-name="Group 49327">
        <path id="Path_37284" data-name="Path 37284" d="M140,10.8a4.2,4.2,0,0,1,4.2,4.2V45a4.2,4.2,0,0,1-4.2,4.2H15A4.2,4.2,0,0,1,10.8,45V15A4.2,4.2,0,0,1,15,10.8H140m0-.8H15a5.015,5.015,0,0,0-5,5V45a5.015,5.015,0,0,0,5,5H140a5.015,5.015,0,0,0,5-5V15a5.015,5.015,0,0,0-5-5Z"/>
      </g>
    </g>
    <g id="Group_49329" data-name="Group 49329">
      <path id="Path_37285" data-name="Path 37285" d="M57.418,20.243a2.709,2.709,0,0,1-.745,2,2.908,2.908,0,0,1-2.2.888,3.152,3.152,0,0,1-2.208-5.367,3.018,3.018,0,0,1,2.208-.9,3.106,3.106,0,0,1,1.232.251,2.468,2.468,0,0,1,.938.671l-.527.527a2.029,2.029,0,0,0-1.643-.711,2.32,2.32,0,0,0-2.33,2.4,2.36,2.36,0,0,0,4.006,1.727,1.892,1.892,0,0,0,.5-1.216H54.469v-.72h2.908A2.557,2.557,0,0,1,57.418,20.243Z" stroke="#000" stroke-width="0.2"/>
      <path id="Path_37286" data-name="Path 37286" d="M62.028,17.737H59.295v1.9h2.464v.72H59.295v1.9h2.733V23h-3.5V17h3.5Z" stroke="#000" stroke-width="0.2"/>
      <path id="Path_37287" data-name="Path 37287" d="M65.279,23h-.772V17.737H62.832V17h4.123v.737H65.279Z" stroke="#000" stroke-width="0.2"/>
      <path id="Path_37288" data-name="Path 37288" d="M69.938,23V17h.77v6Z" stroke="#000" stroke-width="0.2"/>
      <path id="Path_37289" data-name="Path 37289" d="M74.128,23h-.771V17.737H71.681V17H75.8v.737H74.128Z" stroke="#000" stroke-width="0.2"/>
      <path id="Path_37290" data-name="Path 37290" d="M83.609,22.225a3.116,3.116,0,0,1-4.4,0,3.242,3.242,0,0,1,0-4.45,3.106,3.106,0,0,1,4.4,0,3.232,3.232,0,0,1,0,4.446Zm-3.83-.5a2.308,2.308,0,0,0,3.26,0,2.556,2.556,0,0,0,0-3.444,2.308,2.308,0,0,0-3.26,0,2.559,2.559,0,0,0,0,3.444Z" stroke="#000" stroke-width="0.2"/>
      <path id="Path_37291" data-name="Path 37291" d="M85.575,23V17h.939l2.916,4.667h.033l-.033-1.156V17H90.2v6h-.8l-3.051-4.894h-.033l.033,1.157V23Z" stroke="#000" stroke-width="0.2"/>
    </g>
    <path id="Path_37292" data-name="Path 37292" d="M78.136,31.752A4.253,4.253,0,1,0,82.4,36.005,4.192,4.192,0,0,0,78.136,31.752Zm0,6.83a2.584,2.584,0,1,1,2.4-2.577A2.46,2.46,0,0,1,78.136,38.582Zm-9.313-6.83a4.253,4.253,0,1,0,4.269,4.253A4.192,4.192,0,0,0,68.823,31.752Zm0,6.83a2.584,2.584,0,1,1,2.4-2.577A2.46,2.46,0,0,1,68.823,38.582ZM57.744,33.057v1.8h4.317a3.765,3.765,0,0,1-.982,2.271,4.42,4.42,0,0,1-3.335,1.321,4.8,4.8,0,0,1,0-9.6A4.6,4.6,0,0,1,61,30.141l1.273-1.273a6.3,6.3,0,0,0-4.527-1.821,6.606,6.606,0,1,0,0,13.211A6.036,6.036,0,0,0,62.351,38.4a5.962,5.962,0,0,0,1.563-4.221,5.829,5.829,0,0,0-.1-1.127Zm45.308,1.4a3.953,3.953,0,0,0-3.641-2.706A4.041,4.041,0,0,0,95.4,36.005a4.162,4.162,0,0,0,4.221,4.253,4.23,4.23,0,0,0,3.544-1.885l-1.45-.967a2.43,2.43,0,0,1-2.094,1.176,2.165,2.165,0,0,1-2.063-1.288l5.687-2.353Zm-5.8,1.418A2.333,2.333,0,0,1,99.475,33.4a1.645,1.645,0,0,1,1.579.9ZM92.629,40H94.5V27.5H92.629Zm-3.062-7.3H89.5a2.948,2.948,0,0,0-2.239-.95,4.257,4.257,0,0,0,0,8.506,2.9,2.9,0,0,0,2.239-.967h.064V39.9c0,1.627-.869,2.5-2.271,2.5a2.354,2.354,0,0,1-2.143-1.515l-1.627.677a4.053,4.053,0,0,0,3.77,2.513c2.191,0,4.044-1.289,4.044-4.43V32.009H89.567Zm-2.142,5.88a2.587,2.587,0,0,1,0-5.155A2.4,2.4,0,0,1,89.7,36.021,2.376,2.376,0,0,1,87.425,38.582ZM111.806,27.5h-4.471V40H109.2V35.264h2.606a3.888,3.888,0,1,0,0-7.765Zm.048,6.025H109.2V29.239h2.654a2.143,2.143,0,1,1,0,4.285Zm11.532-1.795a3.505,3.505,0,0,0-3.33,1.913l1.657.692a1.768,1.768,0,0,1,1.705-.917,1.8,1.8,0,0,1,1.962,1.609v.128a4.127,4.127,0,0,0-1.946-.482c-1.785,0-3.6.981-3.6,2.814a2.889,2.889,0,0,0,3.1,2.751,2.633,2.633,0,0,0,2.381-1.223h.064v.965h1.8V35.186C127.181,32.967,125.525,31.729,123.386,31.729Zm-.225,6.851c-.612,0-1.464-.305-1.464-1.061,0-.965,1.061-1.335,1.978-1.335a3.329,3.329,0,0,1,1.7.418A2.262,2.262,0,0,1,123.161,38.58ZM133.743,32l-2.139,5.42h-.064L129.32,32h-2.01l3.329,7.575-1.9,4.214h1.946L135.818,32Zm-16.807,8H118.8V27.5h-1.866Z"/>
    <g id="Group_49331" data-name="Group 49331">
      <path id="Path_37293" data-name="Path 37293" d="M20.435,17.538a2.007,2.007,0,0,0-.462,1.405V41.059a2.005,2.005,0,0,0,.462,1.405l.074.072L32.9,30.147v-.292L20.509,17.465Z" fill="url(#linear-gradient)"/>
      <path id="Path_37294" data-name="Path 37294" d="M37.028,34.279,32.9,30.147v-.292l4.131-4.131.093.054,4.893,2.78c1.4.794,1.4,2.093,0,2.887l-4.893,2.78Z" fill="url(#linear-gradient-2)"/>
      <path id="Path_37295" data-name="Path 37295" d="M37.122,34.225,32.9,30,20.435,42.464a1.627,1.627,0,0,0,2.079.061l14.608-8.3" fill="url(#linear-gradient-3)"/>
      <path id="Path_37296" data-name="Path 37296" d="M37.122,25.777l-14.608-8.3a1.627,1.627,0,0,0-2.079.061L32.9,30Z" fill="url(#linear-gradient-4)"/>
      <g id="Group_49330" data-name="Group 49330">
        <path id="Path_37297" data-name="Path 37297" d="M37.029,34.132,22.514,42.379a1.665,1.665,0,0,1-2,.011h0l-.075.074h0l.074.073h0a1.665,1.665,0,0,0,2-.011l14.608-8.3Z" opacity="0.2" style="mix-blend-mode: normal;isolation: isolate"/>
        <path id="Path_37298" data-name="Path 37298" d="M20.435,42.318a2.005,2.005,0,0,1-.462-1.405v.147a2,2,0,0,0,.462,1.4l.075-.074Z" opacity="0.12" style="mix-blend-mode: normal;isolation: isolate"/>
      </g>
      <path id="Path_37299" data-name="Path 37299" d="M42.015,31.3l-4.986,2.833.093.093,4.893-2.78A1.755,1.755,0,0,0,43.063,30h0A1.861,1.861,0,0,1,42.015,31.3Z" opacity="0.12" style="mix-blend-mode: normal;isolation: isolate"/>
      <path id="Path_37300" data-name="Path 37300" d="M22.514,17.623l19.5,11.08A1.861,1.861,0,0,1,43.063,30h0a1.753,1.753,0,0,0-1.048-1.444l-19.5-11.08c-1.4-.794-2.541-.134-2.541,1.466v.147C19.973,17.489,21.116,16.829,22.514,17.623Z" fill="#fff" opacity="0.25" style="mix-blend-mode: normal;isolation: isolate"/>
    </g>
  </g>
</svg>
